HIERARCHY
ROOT Hips
{
  OFFSET 0.0 0.0 0.0
  CHANNELS 6 Xposition Yposition Zposition Zrotation Xrotation Yrotation
  JOINT Spine
  {
    OFFSET 0.0 10.0 0.0
    CHANNELS 3 Zrotation Xrotation Yrotation
    JOINT Chest
    {
      OFFSET 0.0 10.0 0.0
      CHANNELS 3 Zrotation Xrotation Yrotation
      JOINT Neck
      {
        OFFSET 0.0 5.0 0.0
        CHANNELS 3 Zrotation Xrotation Yrotation
        JOINT Head
        {
          OFFSET 0.0 5.0 0.0
          CHANNELS 3 Zrotation Xrotation Yrotation
          End Site
          {
            OFFSET 0.0 3.0 0.0
          }
        }
      }
      JOINT LeftShoulder
      {
        OFFSET 5.0 3.0 0.0
        CHANNELS 3 Zrotation Xrotation Yrotation
        JOINT LeftArm
        {
          OFFSET 10.0 0.0 0.0
          CHANNELS 3 Zrotation Xrotation Yrotation
          JOINT LeftForeArm
          {
            OFFSET 10.0 0.0 0.0
            CHANNELS 3 Zrotation Xrotation Yrotation
            JOINT LeftHand
            {
              OFFSET 8.0 0.0 0.0
              CHANNELS 3 Zrotation Xrotation Yrotation
              End Site
              {
                OFFSET 3.0 0.0 0.0
              }
            }
          }
        }
      }
      JOINT RightShoulder
      {
        OFFSET -5.0 3.0 0.0
        CHANNELS 3 Zrotation Xrotation Yrotation
        JOINT RightArm
        {
          OFFSET -10.0 0.0 0.0
          CHANNELS 3 Zrotation Xrotation Yrotation
          JOINT RightForeArm
          {
            OFFSET -10.0 0.0 0.0
            CHANNELS 3 Zrotation Xrotation Yrotation
            JOINT RightHand
            {
              OFFSET -8.0 0.0 0.0
              CHANNELS 3 Zrotation Xrotation Yrotation
              End Site
              {
                OFFSET -3.0 0.0 0.0
              }
            }
          }
        }
      }
    }
  }
  JOINT LeftHip
  {
    OFFSET 5.0 -2.0 0.0
    CHANNELS 3 Zrotation Xrotation Yrotation
    JOINT LeftThigh
    {
      OFFSET 0.0 -20.0 0.0
      CHANNELS 3 Zrotation Xrotation Yrotation
      JOINT LeftShin
      {
        OFFSET 0.0 -20.0 0.0
        CHANNELS 3 Zrotation Xrotation Yrotation
        JOINT LeftFoot
        {
          OFFSET 0.0 -5.0 0.0
          CHANNELS 3 Zrotation Xrotation Yrotation
          End Site
          {
            OFFSET 0.0 -2.0 5.0
          }
        }
      }
    }
  }
  JOINT RightHip
  {
    OFFSET -5.0 -2.0 0.0
    CHANNELS 3 Zrotation Xrotation Yrotation
    JOINT RightThigh
    {
      OFFSET 0.0 -20.0 0.0
      CHANNELS 3 Zrotation Xrotation Yrotation
      JOINT RightShin
      {
        OFFSET 0.0 -20.0 0.0
        CHANNELS 3 Zrotation Xrotation Yrotation
        JOINT RightFoot
        {
          OFFSET 0.0 -5.0 0.0
          CHANNELS 3 Zrotation Xrotation Yrotation
          End Site
          {
            OFFSET 0.0 -2.0 5.0
          }
        }
      }
    }
  }
}
MOTION
Frames: 13
Frame Time: 0.033333
6.328388 41.355044 0.000000 0.225937 0.000000 0.000000 0.000000 0.000000 0.000000 0.000000 0.112968 0.000000 0.000000 0.000000 0.000000 0.000000 0.067781 0.000000 0.000000 0.000000 -10.000000 0.000000 0.000000 0.813027 0.000000 0.000000 0.000000 0.000000 0.000000 0.000000 0.000000 0.000000 10.000000 0.000000 0.000000 -0.813027 0.000000 0.000000 -0.813027 0.000000 0.000000 0.000000 0.000000 0.000000 0.000000 0.000000 0.000000 -2.710089 0.000000 0.000000 2.710089 0.000000 0.000000 0.000000 0.000000 0.000000 0.000000 0.000000 0.000000 2.710089 0.000000 0.000000 0.000000 0.000000 0.000000 0.000000
6.418794 44.040252 0.000000 0.675965 0.000000 0.000000 0.000000 0.000000 0.000000 0.000000 0.337983 0.000000 0.000000 0.000000 0.000000 0.000000 0.202790 0.000000 0.000000 0.000000 -10.000000 0.000000 0.000000 2.424151 0.000000 0.000000 0.000000 0.000000 0.000000 0.000000 0.000000 0.000000 10.000000 0.000000 0.000000 -2.424151 0.000000 0.000000 -2.424151 0.000000 0.000000 0.000000 0.000000 0.000000 0.000000 0.000000 0.000000 -8.080505 0.000000 0.000000 8.080505 0.000000 0.000000 0.000000 0.000000 0.000000 0.000000 0.000000 0.000000 8.080505 0.000000 0.000000 0.000000 0.000000 0.000000 0.000000
6.509199 46.651276 0.000000 1.120473 0.000000 0.000000 0.000000 0.000000 0.000000 0.000000 0.560236 0.000000 0.000000 0.000000 0.000000 0.000000 0.336142 0.000000 0.000000 0.000000 -10.000000 0.000000 0.000000 3.990765 0.000000 0.000000 0.000000 0.000000 0.000000 0.000000 0.000000 0.000000 10.000000 0.000000 0.000000 -3.990765 0.000000 0.000000 -3.990765 0.000000 0.000000 0.000000 0.000000 0.000000 0.000000 0.000000 0.000000 -13.302551 0.000000 0.000000 13.302551 0.000000 0.000000 0.000000 0.000000 0.000000 0.000000 0.000000 0.000000 13.302551 0.000000 0.000000 0.000000 0.000000 0.000000 0.000000
6.599605 49.140172 0.000000 1.555829 0.000000 0.000000 0.000000 0.000000 0.000000 0.000000 0.777914 0.000000 0.000000 0.000000 0.000000 0.000000 0.466749 0.000000 0.000000 0.000000 -10.000000 0.000000 0.000000 5.484103 0.000000 0.000000 0.000000 0.000000 0.000000 0.000000 0.000000 0.000000 10.000000 0.000000 0.000000 -5.484103 0.000000 0.000000 -5.484103 0.000000 0.000000 0.000000 0.000000 0.000000 0.000000 0.000000 0.000000 -18.280343 0.000000 0.000000 18.280343 0.000000 0.000000 0.000000 0.000000 0.000000 0.000000 0.000000 0.000000 18.280343 0.000000 0.000000 0.000000 0.000000 0.000000 0.000000
6.690010 51.461241 0.000000 1.978477 0.000000 0.000000 0.000000 0.000000 0.000000 0.000000 0.989239 0.000000 0.000000 0.000000 0.000000 0.000000 0.593543 0.000000 0.000000 0.000000 -10.000000 0.000000 0.000000 6.876745 0.000000 0.000000 0.000000 0.000000 0.000000 0.000000 0.000000 0.000000 10.000000 0.000000 0.000000 -6.876745 0.000000 0.000000 -6.876745 0.000000 0.000000 0.000000 0.000000 0.000000 0.000000 0.000000 0.000000 -22.922482 0.000000 0.000000 22.922482 0.000000 0.000000 0.000000 0.000000 0.000000 0.000000 0.000000 0.000000 22.922482 0.000000 0.000000 0.000000 0.000000 0.000000 0.000000
6.780416 53.571865 0.000000 2.384966 0.000000 0.000000 0.000000 0.000000 0.000000 0.000000 1.192483 0.000000 0.000000 0.000000 0.000000 0.000000 0.715490 0.000000 0.000000 0.000000 -10.000000 0.000000 0.000000 8.143119 0.000000 0.000000 0.000000 0.000000 0.000000 0.000000 0.000000 0.000000 10.000000 0.000000 0.000000 -8.143119 0.000000 0.000000 -8.143119 0.000000 0.000000 0.000000 0.000000 0.000000 0.000000 0.000000 0.000000 -27.143730 0.000000 0.000000 27.143730 0.000000 0.000000 0.000000 0.000000 0.000000 0.000000 0.000000 0.000000 27.143730 0.000000 0.000000 0.000000 0.000000 0.000000 0.000000
6.870821 55.433290 0.000000 2.771976 0.000000 0.000000 0.000000 0.000000 0.000000 0.000000 1.385988 0.000000 0.000000 0.000000 0.000000 0.000000 0.831593 0.000000 0.000000 0.000000 -10.000000 0.000000 0.000000 9.259974 0.000000 0.000000 0.000000 0.000000 0.000000 0.000000 0.000000 0.000000 10.000000 0.000000 0.000000 -9.259974 0.000000 0.000000 -9.259974 0.000000 0.000000 0.000000 0.000000 0.000000 0.000000 0.000000 0.000000 -30.866581 0.000000 0.000000 30.866581 0.000000 0.000000 0.000000 0.000000 0.000000 0.000000 0.000000 0.000000 30.866581 0.000000 0.000000 0.000000 0.000000 0.000000 0.000000
6.961227 57.011338 0.000000 3.136345 0.000000 0.000000 0.000000 0.000000 0.000000 0.000000 1.568173 0.000000 0.000000 0.000000 0.000000 0.000000 0.940904 0.000000 0.000000 0.000000 -10.000000 0.000000 0.000000 10.206803 0.000000 0.000000 0.000000 0.000000 0.000000 0.000000 0.000000 0.000000 10.000000 0.000000 0.000000 -10.206803 0.000000 0.000000 -10.206803 0.000000 0.000000 0.000000 0.000000 0.000000 0.000000 0.000000 0.000000 -34.022676 0.000000 0.000000 34.022676 0.000000 0.000000 0.000000 0.000000 0.000000 0.000000 0.000000 0.000000 34.022676 0.000000 0.000000 0.000000 0.000000 0.000000 0.000000
7.051632 58.277033 0.000000 3.475098 0.000000 0.000000 0.000000 0.000000 0.000000 0.000000 1.737549 0.000000 0.000000 0.000000 0.000000 0.000000 1.042529 0.000000 0.000000 0.000000 -10.000000 0.000000 0.000000 10.966220 0.000000 0.000000 0.000000 0.000000 0.000000 0.000000 0.000000 0.000000 10.000000 0.000000 0.000000 -10.966220 0.000000 0.000000 -10.966220 0.000000 0.000000 0.000000 0.000000 0.000000 0.000000 0.000000 0.000000 -36.554065 0.000000 0.000000 36.554065 0.000000 0.000000 0.000000 0.000000 0.000000 0.000000 0.000000 0.000000 36.554065 0.000000 0.000000 0.000000 0.000000 0.000000 0.000000
7.142038 59.207134 0.000000 3.785468 0.000000 0.000000 0.000000 0.000000 0.000000 0.000000 1.892734 0.000000 0.000000 0.000000 0.000000 0.000000 1.135640 0.000000 0.000000 0.000000 -10.000000 0.000000 0.000000 11.524281 0.000000 0.000000 0.000000 0.000000 0.000000 0.000000 0.000000 0.000000 10.000000 0.000000 0.000000 -11.524281 0.000000 0.000000 -11.524281 0.000000 0.000000 0.000000 0.000000 0.000000 0.000000 0.000000 0.000000 -38.414269 0.000000 0.000000 38.414269 0.000000 0.000000 0.000000 0.000000 0.000000 0.000000 0.000000 0.000000 38.414269 0.000000 0.000000 0.000000 0.000000 0.000000 0.000000
7.232444 59.784565 0.000000 4.064919 0.000000 0.000000 0.000000 0.000000 0.000000 0.000000 2.032459 0.000000 0.000000 0.000000 0.000000 0.000000 1.219476 0.000000 0.000000 0.000000 -10.000000 0.000000 0.000000 11.870739 0.000000 0.000000 0.000000 0.000000 0.000000 0.000000 0.000000 0.000000 10.000000 0.000000 0.000000 -11.870739 0.000000 0.000000 -11.870739 0.000000 0.000000 0.000000 0.000000 0.000000 0.000000 0.000000 0.000000 -39.569131 0.000000 0.000000 39.569131 0.000000 0.000000 0.000000 0.000000 0.000000 0.000000 0.000000 0.000000 39.569131 0.000000 0.000000 0.000000 0.000000 0.000000 0.000000
7.322849 59.998723 0.000000 4.311170 0.000000 0.000000 0.000000 0.000000 0.000000 0.000000 2.155585 0.000000 0.000000 0.000000 0.000000 0.000000 1.293351 0.000000 0.000000 0.000000 -10.000000 0.000000 0.000000 11.999234 0.000000 0.000000 0.000000 0.000000 0.000000 0.000000 0.000000 0.000000 10.000000 0.000000 0.000000 -11.999234 0.000000 0.000000 -11.999234 0.000000 0.000000 0.000000 0.000000 0.000000 0.000000 0.000000 0.000000 -39.997446 0.000000 0.000000 39.997446 0.000000 0.000000 0.000000 0.000000 0.000000 0.000000 0.000000 0.000000 39.997446 0.000000 0.000000 0.000000 0.000000 0.000000 0.000000
7.413255 59.845675 0.000000 4.522209 0.000000 0.000000 0.000000 0.000000 0.000000 0.000000 2.261104 0.000000 0.000000 0.000000 0.000000 0.000000 1.356663 0.000000 0.000000 0.000000 -10.000000 0.000000 0.000000 11.907405 0.000000 0.000000 0.000000 0.000000 0.000000 0.000000 0.000000 0.000000 10.000000 0.000000 0.000000 -11.907405 0.000000 0.000000 -11.907405 0.000000 0.000000 0.000000 0.000000 0.000000 0.000000 0.000000 0.000000 -39.691350 0.000000 0.000000 39.691350 0.000000 0.000000 0.000000 0.000000 0.000000 0.000000 0.000000 0.000000 39.691350 0.000000 0.000000 0.000000 0.000000 0.000000 0.000000
